<?xml version="1.0" encoding="utf-8"?>
<!-- Generator: Adobe Illustrator 23.0.1, SVG Export Plug-In . SVG Version: 6.00 Build 0)  -->
<svg version="1.1" id="Ebene_1" xmlns="http://www.w3.org/2000/svg" xmlns:xlink="http://www.w3.org/1999/xlink" x="0px" y="0px"
	 viewBox="0 0 30 30" style="enable-background:new 0 0 30 30;" xml:space="preserve">
<style type="text/css">
	.st0{fill:none;stroke:#000000;stroke-miterlimit:10;}
</style>
<g>
	<path d="M28,1c0.55,0,1,0.45,1,1v26c0,0.55-0.45,1-1,1H2c-0.55,0-1-0.45-1-1V2c0-0.55,0.45-1,1-1H28 M28,0H2C0.9,0,0,0.9,0,2v26
		c0,1.1,0.9,2,2,2h26c1.1,0,2-0.9,2-2V2C30,0.9,29.1,0,28,0L28,0z"/>
</g>
<circle class="st0" cx="15" cy="15" r="9"/>
<circle class="st0" cx="24.5" cy="5.5" r="1.5"/>
</svg>
